<svg width="128" height="128" viewBox="0 0 128 128" fill="none" xmlns="http://www.w3.org/2000/svg">
  <g filter="url(#shadow)">
    <path d="M64 16C64 12.6863 66.6863 10 70 10C73.3137 10 76 12.6863 76 16V48H64V16Z" fill="white"/>
    <path d="M55 49C55 43.4772 59.4772 39 65 39H75C80.5228 39 85 43.4772 85 49V60H55V49Z" fill="white"/>
    <path d="M70 58C73.3137 58 76 60.6863 76 64V80H64V64C64 60.6863 66.6863 58 70 58Z" fill="white"/>
    <ellipse cx="70" cy="102" rx="24" ry="12" fill="white"/>
    <ellipse cx="70" cy="102" rx="16" ry="6" fill="#081019"/>
    <path d="M71 32L95 22L100 32L76 42L71 32Z" fill="white"/>
    <circle cx="100" cy="32" r="12" stroke="white" stroke-width="6"/>
    <circle cx="100" cy="32" r="7" fill="#0D1420" opacity="0.18"/>
    <path d="M108 41L117 50" stroke="white" stroke-width="6" stroke-linecap="round"/>
    <path d="M96 27C98.5 23.5 103 22.5 106.5 24" stroke="#DDE8FF" stroke-width="2.5" stroke-linecap="round" opacity="0.75"/>
  </g>
  <defs>
    <filter id="shadow" x="22" y="6" width="102" height="116" filterUnits="userSpaceOnUse" color-interpolation-filters="sRGB">
      <feFlood flood-opacity="0" result="BackgroundImageFix"/>
      <feColorMatrix in="SourceAlpha" type="matrix" values="0 0 0 0 0 0 0 0 0 0 0 0 0 0 0 0 0 0 127 0" result="hardAlpha"/>
      <feOffset dx="0" dy="4"/>
      <feGaussianBlur stdDeviation="8"/>
      <feComposite in2="hardAlpha" operator="out"/>
      <feColorMatrix type="matrix" values="0 0 0 0 0 0 0 0 0 0 0 0 0 0 0 0 0 0 0.45 0"/>
      <feBlend mode="normal" in2="BackgroundImageFix" result="effect1_dropShadow_1_1"/>
      <feBlend mode="normal" in="SourceGraphic" in2="effect1_dropShadow_1_1" result="shape"/>
    </filter>
  </defs>
</svg>
